<?xml version="1.0" standalone="no"?>
<!DOCTYPE svg PUBLIC "-//W3C//DTD SVG 20010904//EN"
 "http://www.w3.org/TR/2001/REC-SVG-20010904/DTD/svg10.dtd">
<svg version="1.0" xmlns="http://www.w3.org/2000/svg"
 width="1000.000000pt" height="1000.000000pt" viewBox="0 0 1000.000000 1000.000000"
 preserveAspectRatio="xMidYMid meet">
<metadata>
Created by potrace 1.14, written by Peter Selinger 2001-2017
</metadata>
<g transform="translate(0.000000,1000.000000) scale(0.100000,-0.100000)"
fill="#000000" stroke="none">
<path d="M750 9885 c-303 -61 -538 -281 -626 -585 -18 -63 -19 -190 -22 -4255
-2 -3148 0 -4209 9 -4265 48 -313 275 -565 589 -656 63 -18 190 -19 4255 -22
3148 -2 4209 0 4265 9 313 48 565 275 656 589 18 63 19 190 22 4255 2 3148 0
4209 -9 4265 -48 313 -275 565 -589 656 -63 18 -188 19 -4275 21 -3450 1
-4222 -1 -4275 -12z m6560 -3049 c0 -544 -4 -877 -10 -881 -15 -9 -60 6 -60
21 0 8 -9 14 -20 14 -11 0 -20 7 -20 15 0 8 -14 17 -35 21 -20 3 -35 12 -35
20 0 9 -11 14 -29 14 -20 0 -30 6 -34 20 -4 15 -14 20 -36 20 -21 0 -31 5 -31
15 0 12 -19 15 -110 15 -88 0 -110 -3 -110 -14 0 -8 -13 -17 -30 -21 -16 -4
-30 -13 -30 -21 0 -8 -9 -14 -20 -14 -11 0 -20 -6 -20 -14 0 -8 -13 -17 -30
-21 -16 -4 -30 -13 -30 -21 0 -8 -9 -14 -20 -14 -13 0 -20 -7 -20 -20 0 -11
-7 -20 -15 -20 -8 0 -15 -7 -15 -15 0 -8 -9 -15 -20 -15 -11 0 -20 -7 -20 -15
0 -8 -7 -15 -15 -15 -8 0 -15 -9 -15 -20 0 -11 -7 -20 -15 -20 -8 0 -15 -7
-15 -15 0 -10 10 -15 30 -15 20 0 30 -5 30 -15 0 -8 7 -15 16 -15 9 0 18 -9
21 -20 3 -11 12 -20 19 -20 8 0 14 -7 14 -15 0 -8 7 -15 16 -15 9 0 18 -9 21
-20 3 -11 12 -20 19 -20 8 0 14 -7 14 -15 0 -8 7 -15 15 -15 8 0 15 -7 15 -15
0 -8 -7 -15 -15 -15 -8 0 -15 7 -15 15 0 10 -11 15 -35 15 -24 0 -35 5 -35 15
0 8 -7 15 -15 15 -8 0 -15 7 -15 15 0 8 -7 15 -16 15 -9 0 -18 9 -21 20 -3 11
-14 20 -24 20 -11 0 -19 6 -19 14 0 8 -7 16 -15 20 -8 3 -15 12 -15 21 0 10
-10 15 -30 15 -26 0 -30 -4 -30 -27 0 -43 -11 -73 -26 -73 -8 0 -14 -10 -14
-21 0 -17 4 -20 23 -15 12 3 28 6 35 6 6 0 12 7 12 15 0 10 11 15 35 15 24 0
35 -5 35 -14 0 -8 13 -17 29 -21 17 -3 31 -14 34 -26 3 -10 12 -19 21 -19 11
0 16 -9 16 -30 0 -20 5 -30 15 -30 8 0 15 -7 15 -15 0 -8 -7 -15 -15 -15 -8 0
-15 7 -15 15 0 8 -7 15 -15 15 -10 0 -15 -11 -15 -35 0 -24 5 -35 15 -35 8 0
15 -7 15 -15 0 -8 7 -15 16 -15 9 0 18 -9 21 -20 3 -11 12 -20 19 -20 8 0 14
-7 14 -15 0 -8 7 -15 15 -15 9 0 18 -7 21 -15 4 -8 12 -15 20 -15 8 0 14 -9
14 -20 0 -11 5 -20 11 -20 15 0 59 -42 59 -57 0 -7 7 -13 15 -13 8 0 15 -7 15
-15 0 -8 7 -15 16 -15 9 0 18 -9 21 -20 3 -11 12 -20 19 -20 8 0 14 -7 14 -15
0 -8 7 -15 15 -15 8 0 15 -9 15 -20 0 -11 -7 -20 -15 -20 -8 0 -15 9 -15 20 0
11 -7 20 -15 20 -8 0 -15 7 -15 15 0 8 -9 15 -20 15 -11 0 -20 7 -20 15 0 8
-7 15 -16 15 -9 0 -18 9 -21 20 -4 14 -14 20 -34 20 -22 0 -29 5 -29 20 0 11
-7 20 -15 20 -8 0 -15 7 -15 15 0 8 -9 15 -20 15 -13 0 -20 7 -20 20 0 11 -7
20 -15 20 -8 0 -15 7 -15 15 0 8 -6 15 -14 15 -7 0 -16 9 -19 20 -3 11 -12 20
-21 20 -9 0 -16 7 -16 15 0 8 -9 15 -20 15 -11 0 -20 7 -20 15 0 9 -9 15 -21
15 -17 0 -20 -4 -15 -22 3 -13 6 -29 6 -35 0 -7 7 -13 15 -13 8 0 15 -7 15
-15 0 -8 6 -15 14 -15 7 0 16 -9 19 -20 3 -11 12 -20 21 -20 9 0 16 -7 16 -15
0 -8 6 -15 14 -15 7 0 16 -9 19 -20 3 -11 12 -20 21 -20 9 0 16 -7 16 -15 0
-8 7 -15 15 -15 8 0 15 -7 15 -15 0 -8 9 -15 20 -15 13 0 20 -7 20 -20 0 -11
7 -20 15 -20 8 0 15 -7 15 -15 0 -8 7 -15 16 -15 9 0 18 -9 21 -20 3 -11 12
-20 19 -20 8 0 14 -7 14 -15 0 -8 7 -15 16 -15 9 0 18 -9 21 -20 3 -11 12 -20
19 -20 8 0 14 -7 14 -15 0 -24 -56 -20 -63 5 -3 11 -12 20 -21 20 -9 0 -16 7
-16 15 0 8 -7 15 -15 15 -8 0 -15 7 -15 15 0 8 -9 15 -20 15 -13 0 -20 7 -20
20 0 13 -7 20 -20 20 -11 0 -20 7 -20 15 0 8 -7 15 -15 15 -8 0 -15 9 -15 20
0 13 -7 20 -20 20 -11 0 -20 7 -20 15 0 8 -7 15 -15 15 -8 0 -15 7 -15 15 0 8
-7 15 -15 15 -8 0 -15 9 -15 20 0 13 -7 20 -20 20 -11 0 -20 7 -20 15 0 8 -7
15 -15 15 -8 0 -15 6 -15 14 0 13 -28 26 -57 26 -8 0 -13 -14 -13 -35 0 -24 5
-35 15 -35 8 0 15 -7 15 -15 0 -8 -7 -15 -15 -15 -8 0 -15 7 -15 15 0 10 -11
15 -35 15 -24 0 -35 5 -35 15 0 9 -9 15 -21 15 -18 0 -20 -4 -14 -30 6 -26 4
-30 -14 -30 -12 0 -21 6 -21 15 0 8 -9 15 -20 15 -11 0 -20 7 -20 15 0 8 -7
15 -15 15 -8 0 -15 6 -15 14 0 8 -13 17 -29 21 -22 5 -31 14 -36 36 -4 16 -13
29 -21 29 -8 0 -14 9 -14 20 0 34 -27 22 -34 -15 -4 -19 -11 -35 -16 -35 -4 0
-11 -13 -15 -29 -3 -17 -14 -31 -26 -34 -10 -3 -19 -12 -19 -21 0 -9 -7 -16
-15 -16 -8 0 -15 -6 -15 -14 0 -7 -9 -16 -20 -19 -11 -3 -20 -12 -20 -21 0 -9
-7 -16 -15 -16 -8 0 -15 -7 -15 -15 0 -8 -3 -15 -7 -15 -5 0 -18 -3 -29 -6
-18 -5 -22 0 -28 30 -7 35 -36 52 -36 21 0 -10 -11 -15 -35 -15 -33 0 -35 2
-35 35 0 28 4 35 20 35 11 0 20 7 20 15 0 8 7 15 15 15 10 0 15 11 15 35 0 24
5 35 15 35 8 0 15 9 15 20 0 22 -3 23 -37 14 -13 -4 -23 -13 -23 -20 0 -8 -7
-14 -15 -14 -8 0 -15 -7 -15 -15 0 -8 -9 -15 -20 -15 -15 0 -20 7 -20 28 0 37
-10 72 -21 72 -5 0 -9 -7 -9 -16 0 -9 -9 -18 -20 -21 -14 -4 -20 -14 -20 -34
0 -24 -4 -29 -24 -29 -45 0 -86 -13 -86 -26 0 -8 -4 -14 -10 -14 -5 0 -10 -7
-10 -15 0 -8 7 -15 15 -15 22 0 18 -31 -5 -37 -11 -3 -20 -12 -20 -19 0 -8 -9
-14 -20 -14 -11 0 -20 -7 -20 -15 0 -8 -7 -15 -15 -15 -8 0 -15 -7 -15 -15 0
-8 -7 -15 -15 -15 -8 0 -15 -9 -15 -20 0 -16 7 -20 30 -20 20 0 30 5 30 15 0
8 9 15 20 15 11 0 20 -7 20 -15 0 -12 13 -15 55 -15 42 0 55 3 55 15 0 10 10
15 30 15 20 0 30 -5 30 -15 0 -11 12 -15 48 -15 26 0 57 -3 70 -6 27 -8 29
-34 2 -34 -11 0 -20 -7 -20 -15 0 -8 -7 -15 -15 -15 -8 0 -15 -7 -15 -15 0 -8
-7 -15 -15 -15 -8 0 -15 -9 -15 -20 0 -13 -7 -20 -20 -20 -11 0 -20 -7 -20
-15 0 -8 -7 -15 -15 -15 -8 0 -15 -9 -15 -20 0 -13 -7 -20 -20 -20 -11 0 -20
-7 -20 -15 0 -8 -7 -15 -15 -15 -8 0 -15 -9 -15 -20 0 -13 -7 -20 -20 -20 -11
0 -20 -7 -20 -15 0 -8 -7 -15 -15 -15 -8 0 -15 -9 -15 -20 0 -11 -7 -20 -15
-20 -8 0 -15 -7 -15 -15 0 -8 -9 -15 -20 -15 -11 0 -20 -7 -20 -15 0 -8 -7
-15 -15 -15 -8 0 -15 -9 -15 -20 0 -13 -7 -20 -20 -20 -11 0 -20 -7 -20 -15 0
-8 -7 -15 -15 -15 -8 0 -15 -9 -15 -20 0 -13 -7 -20 -20 -20 -11 0 -20 -7 -20
-15 0 -8 -7 -15 -15 -15 -8 0 -15 -9 -15 -20 0 -11 -7 -20 -15 -20 -8 0 -15
-7 -15 -15 0 -8 -9 -15 -20 -15 -13 0 -20 -7 -20 -20 0 -11 -7 -20 -15 -20 -8
0 -15 -7 -15 -15 0 -8 -9 -15 -20 -15 -11 0 -20 -7 -20 -15 0 -8 -7 -15 -15
-15 -8 0 -15 -9 -15 -20 0 -11 -6 -20 -14 -20 -7 0 -16 -9 -19 -20 -3 -11 -12
-20 -21 -20 -9 0 -16 -7 -16 -15 0 -8 -7 -15 -15 -15 -8 0 -15 -7 -15 -15 0
-8 -9 -15 -20 -15 -11 0 -20 7 -20 15 0 8 9 15 20 15 13 0 20 7 20 20 0 11 7
20 15 20 8 0 15 7 15 15 0 8 7 15 15 15 8 0 15 6 15 13 0 6 3 22 6 35 6 20 3
22 -30 22 -23 0 -36 -5 -36 -13 0 -7 -9 -20 -20 -30 -11 -9 -20 -26 -20 -37 0
-11 -6 -20 -14 -20 -7 0 -16 -9 -19 -20 -3 -11 -12 -20 -21 -20 -9 0 -16 -7
-16 -15 0 -8 -6 -15 -14 -15 -7 0 -16 -9 -19 -20 -3 -11 -12 -20 -21 -20 -9 0
-16 -7 -16 -15 0 -11 -12 -15 -50 -15 -38 0 -50 -4 -50 -15 0 -28 -28 -15 -35
15 -7 30 -35 43 -35 15 0 -8 -6 -15 -14 -15 -7 0 -16 -9 -19 -21 -8 -31 -31
-18 -35 19 -3 28 -7 32 -33 32 -19 0 -29 -5 -29 -15 0 -8 -9 -15 -20 -15 -16
0 -20 -7 -20 -35 0 -23 5 -35 14 -35 7 0 16 -9 19 -20 3 -11 12 -20 21 -20 9
0 16 -7 16 -15 0 -8 7 -15 15 -15 8 0 15 7 15 15 0 16 36 21 42 6 2 -5 15 -12
29 -16 21 -5 27 -2 32 14 3 12 12 21 21 21 9 0 16 7 16 15 0 10 11 15 35 15
33 0 35 -2 35 -35 0 -24 -5 -35 -15 -35 -8 0 -15 -7 -15 -15 0 -8 -9 -15 -20
-15 -13 0 -20 -7 -20 -20 0 -11 -7 -20 -15 -20 -8 0 -15 -7 -15 -15 0 -8 -9
-15 -20 -15 -13 0 -20 -7 -20 -20 0 -11 -7 -20 -15 -20 -8 0 -15 -7 -15 -15 0
-12 -13 -15 -55 -15 -42 0 -55 -3 -55 -15 0 -8 -7 -15 -15 -15 -8 0 -15 -9
-15 -20 0 -13 -7 -20 -20 -20 -11 0 -20 -7 -20 -15 0 -8 -7 -15 -15 -15 -11 0
-15 12 -15 45 0 33 -4 45 -15 45 -8 0 -15 -4 -15 -10 0 -5 -9 -10 -20 -10 -13
0 -20 -7 -20 -20 0 -11 -7 -20 -15 -20 -8 0 -15 -6 -15 -14 0 -7 -13 -16 -30
-19 -29 -6 -70 -39 -70 -56 0 -5 7 -11 15 -15 21 -8 19 -23 -5 -29 -11 -3 -20
-12 -20 -21 0 -11 -9 -16 -30 -16 -20 0 -30 5 -30 15 0 8 -9 15 -20 15 -11 0
-20 -7 -20 -15 0 -8 -7 -15 -15 -15 -8 0 -15 7 -15 15 0 8 -9 15 -20 15 -11 0
-20 -7 -20 -15 0 -8 -7 -15 -15 -15 -8 0 -15 7 -15 15 0 10 -11 15 -35 15 -24
0 -35 -5 -35 -15 0 -8 -9 -15 -20 -15 -11 0 -20 -7 -20 -15 0 -8 -7 -15 -15
-15 -8 0 -15 7 -15 15 0 12 -14 15 -65 15 -51 0 -65 3 -65 15 0 8 -9 15 -20
15 -13 0 -20 7 -20 20 0 11 7 20 15 20 8 0 15 6 15 13 0 7 9 20 20 30 11 9 20
26 20 37 0 11 7 20 15 20 8 0 15 9 15 20 0 16 -7 20 -31 20 -22 0 -32 -5 -36
-20 -3 -11 -12 -20 -19 -20 -8 0 -14 -7 -14 -15 0 -8 -9 -15 -20 -15 -11 0
-20 -7 -20 -15 0 -8 -7 -15 -15 -15 -8 0 -15 7 -15 15 0 8 6 15 14 15 17 0 27
34 19 71 -6 30 -33 41 -33 14 0 -8 -6 -15 -12 -15 -16 0 -58 -44 -58 -59 0 -6
-7 -11 -15 -11 -8 0 -15 -7 -15 -16 0 -9 -9 -18 -20 -21 -11 -3 -20 -12 -20
-19 0 -8 -6 -14 -14 -14 -8 0 -17 -15 -20 -35 -4 -21 -13 -35 -21 -35 -10 0
-15 -11 -15 -35 0 -32 -2 -35 -30 -35 -20 0 -30 5 -30 15 0 8 7 15 15 15 8 0
15 9 15 20 0 16 -7 20 -35 20 -28 0 -35 -4 -35 -20 0 -11 -7 -20 -15 -20 -8 0
-15 -7 -15 -15 0 -8 -9 -15 -20 -15 -11 0 -20 6 -20 13 0 29 13 57 26 57 8 0
14 7 14 15 0 8 7 15 15 15 8 0 15 9 15 20 0 11 6 20 14 20 8 0 17 13 21 30 4
16 13 30 21 30 8 0 14 9 14 20 0 16 -7 20 -35 20 -28 0 -35 -4 -35 -20 0 -11
-6 -20 -14 -20 -8 0 -17 -13 -21 -30 -4 -17 -13 -30 -21 -30 -8 0 -14 -10 -14
-21 0 -20 -4 -21 -42 -16 -54 7 -98 -2 -98 -19 0 -8 -7 -14 -15 -14 -10 0 -15
-11 -15 -35 0 -24 -5 -35 -15 -35 -8 0 -15 -7 -15 -15 0 -8 7 -15 15 -15 8 0
15 -9 15 -20 0 -18 7 -20 55 -20 42 0 55 3 55 15 0 12 15 15 79 15 76 0 79 -1
85 -25 8 -33 -3 -75 -20 -75 -10 0 -14 -14 -14 -50 0 -43 3 -50 20 -50 11 0
20 7 20 15 0 8 7 15 15 15 8 0 15 9 15 20 0 15 7 20 29 20 20 0 30 -6 34 -20
7 -26 42 -26 64 0 10 11 23 20 30 20 8 0 13 13 13 35 0 24 5 35 14 35 9 0 16
12 18 33 3 32 3 32 52 29 65 -5 116 5 116 23 0 22 37 18 43 -4 4 -18 13 -19
123 -17 157 4 154 4 154 21 0 21 27 19 32 -2 4 -15 17 -18 89 -17 165 1 189 3
189 19 0 11 12 15 50 15 l50 0 0 35 c0 24 -5 35 -15 35 -10 0 -15 10 -15 30 0
20 5 30 15 30 8 0 15 9 15 19 0 15 8 21 33 23 28 3 32 7 35 36 3 29 6 32 38
32 32 0 34 -2 34 -35 0 -23 -5 -35 -14 -35 -28 0 -38 -126 -11 -136 8 -4 15
-12 15 -20 0 -10 15 -14 55 -14 41 0 55 4 55 14 0 8 -13 17 -29 21 -32 7 -41
26 -41 93 0 31 4 42 15 42 8 0 15 7 15 16 0 9 9 18 20 21 11 3 20 12 20 19 0
8 7 14 15 14 8 0 15 9 15 20 0 11 7 20 15 20 8 0 15 7 15 15 0 8 9 15 20 15
13 0 20 7 20 20 0 11 7 20 15 20 8 0 15 7 15 15 0 8 9 15 20 15 13 0 20 7 20
20 0 11 9 28 20 37 11 10 20 23 20 30 0 7 6 13 13 13 15 0 57 44 57 59 0 6 7
11 15 11 8 0 15 6 15 14 0 8 13 17 29 21 22 5 31 14 36 36 4 16 12 29 18 29
15 0 57 44 57 59 0 6 6 11 13 11 15 0 57 44 57 59 0 6 7 11 15 11 8 0 15 7 15
15 0 8 7 15 16 15 9 0 18 9 21 20 3 11 12 20 19 20 8 0 14 7 14 15 0 8 5 15
11 15 15 0 59 42 59 58 0 6 5 12 11 12 15 0 59 42 59 58 0 6 7 12 15 12 8 0
15 7 15 15 0 8 7 15 16 15 9 0 18 9 21 20 3 11 12 20 19 20 8 0 14 7 14 15 0
8 7 15 16 15 9 0 18 9 21 20 3 11 12 20 19 20 8 0 14 7 14 15 0 8 7 15 15 15
8 0 15 7 15 16 0 9 9 18 20 21 11 3 20 12 20 19 0 8 5 14 11 14 15 0 59 42 59
58 0 6 7 12 15 12 8 0 15 7 15 15 0 8 7 15 16 15 9 0 18 9 21 20 3 11 12 20
19 20 8 0 14 7 14 15 0 8 7 15 16 15 9 0 18 9 21 20 3 11 12 20 19 20 8 0 14
7 14 15 0 8 7 15 15 15 8 0 15 7 15 16 0 9 9 18 20 21 11 3 20 12 20 19 0 8 7
14 15 14 8 0 15 6 15 14 0 7 9 16 20 19 11 3 20 12 20 21 0 9 7 16 15 16 8 0
15 6 15 14 0 8 13 17 29 21 16 3 32 13 35 21 8 21 36 17 36 -6 0 -11 7 -20 15
-20 8 0 15 -7 15 -15 0 -8 9 -15 20 -15 13 0 20 -7 20 -20 0 -11 7 -20 15 -20
8 0 15 -7 15 -15 0 -8 9 -15 20 -15 13 0 20 -7 20 -20 0 -11 7 -20 15 -20 8 0
15 -7 15 -15 0 -8 9 -15 20 -15 11 0 20 -7 20 -15 0 -8 7 -15 15 -15 8 0 15
-9 15 -20 0 -13 7 -20 20 -20 11 0 20 -7 20 -15 0 -8 6 -15 14 -15 7 0 16 -9
19 -20 3 -11 12 -20 21 -20 9 0 16 -7 16 -15 0 -10 10 -15 30 -15 28 0 30 -3
30 -35 0 -19 -4 -35 -9 -35 -5 0 -12 -13 -16 -30 -4 -17 -13 -30 -22 -30 -8 0
-17 -9 -20 -20 -3 -11 -12 -20 -19 -20 -8 0 -14 -7 -14 -15 0 -8 -7 -15 -15
-15 -8 0 -15 -9 -15 -20 0 -13 -7 -20 -20 -20 -11 0 -20 -7 -20 -15 0 -8 -7
-15 -15 -15 -8 0 -15 -9 -15 -20 0 -13 -7 -20 -20 -20 -11 0 -20 -7 -20 -15 0
-8 -7 -15 -15 -15 -8 0 -15 -9 -15 -20 0 -13 -7 -20 -20 -20 -11 0 -20 -7 -20
-15 0 -8 -7 -15 -15 -15 -8 0 -15 -7 -15 -15 0 -8 -7 -15 -15 -15 -8 0 -15 -9
-15 -20 0 -13 -7 -20 -20 -20 -11 0 -20 -7 -20 -15 0 -8 -7 -15 -15 -15 -8 0
-15 -9 -15 -20 0 -13 -7 -20 -20 -20 -11 0 -20 -7 -20 -15 0 -8 -7 -15 -15
-15 -8 0 -15 -9 -15 -20 0 -11 -7 -20 -15 -20 -8 0 -15 -7 -15 -15 0 -8 -9
-15 -20 -15 -13 0 -20 -7 -20 -20 0 -11 -7 -20 -15 -20 -8 0 -15 -7 -15 -15 0
-8 -9 -15 -20 -15 -11 0 -20 -7 -20 -15 0 -8 -7 -15 -15 -15 -8 0 -15 -9 -15
-20 0 -13 -7 -20 -20 -20 -11 0 -20 -7 -20 -15 0 -8 -7 -15 -15 -15 -8 0 -15
-9 -15 -20 0 -13 -7 -20 -20 -20 -11 0 -20 -7 -20 -15 0 -8 -7 -15 -15 -15 -8
0 -15 -9 -15 -20 0 -11 -7 -20 -15 -20 -8 0 -15 -7 -15 -15 0 -8 -9 -15 -20
-15 -13 0 -20 -7 -20 -20 0 -11 -7 -20 -15 -20 -8 0 -15 -7 -15 -15 0 -8 -9
-15 -20 -15 -11 0 -20 -7 -20 -15 0 -8 -7 -15 -15 -15 -8 0 -15 -9 -15 -20 0
-13 -7 -20 -20 -20 -11 0 -20 -7 -20 -15 0 -8 -7 -15 -15 -15 -8 0 -15 -9 -15
-20 0 -13 -7 -20 -20 -20 -11 0 -20 -7 -20 -15 0 -8 -7 -15 -15 -15 -8 0 -15
-9 -15 -20 0 -11 -7 -20 -15 -20 -8 0 -15 -7 -15 -15 0 -8 -9 -15 -20 -15 -11
0 -20 -7 -20 -15 0 -8 -7 -15 -15 -15 -8 0 -15 -9 -15 -20 0 -13 -7 -20 -20
-20 -11 0 -20 -7 -20 -15 0 -8 -7 -15 -15 -15 -8 0 -15 -9 -15 -20 0 -13 -7
-20 -20 -20 -11 0 -20 -7 -20 -15 0 -8 -7 -15 -15 -15 -8 0 -15 -9 -15 -20 0
-11 -7 -20 -15 -20 -8 0 -15 -7 -15 -15 0 -8 -9 -15 -20 -15 -13 0 -20 -7 -20
-20 0 -13 -7 -20 -20 -20 -11 0 -20 -7 -20 -15 0 -10 -10 -15 -30 -15 -20 0
-30 -5 -30 -15 0 -11 -12 -15 -49 -15 -47 0 -50 2 -56 30 -4 17 -10 30 -15 30
-23 0 -29 -154 -6 -167 7 -4 17 -23 21 -40 6 -29 4 -33 -14 -33 -12 0 -21 -6
-21 -15 0 -8 -9 -15 -20 -15 -11 0 -20 -6 -20 -14 0 -8 -13 -17 -30 -21 -16
-4 -30 -13 -30 -21 0 -8 -9 -14 -20 -14 -11 0 -20 -7 -20 -15 0 -8 -7 -15 -15
-15 -8 0 -15 -7 -15 -15 0 -8 -14 -17 -35 -21 -20 -3 -35 -12 -35 -20 0 -8 -7
-14 -15 -14 -8 0 -15 -7 -15 -16 0 -9 -9 -18 -20 -21 -11 -3 -20 -12 -20 -19
0 -8 -9 -14 -20 -14 -11 0 -28 -9 -37 -20 -10 -11 -23 -20 -30 -20 -7 0 -13
-7 -13 -15 0 -8 -7 -15 -15 -15 -8 0 -15 -7 -15 -15 0 -8 -9 -15 -20 -15 -11
0 -20 7 -20 15 0 10 -11 15 -35 15 -24 0 -35 5 -35 14 0 8 -13 17 -30 21 -16
4 -30 13 -30 21 0 8 -9 14 -20 14 -11 0 -20 6 -20 14 0 7 -9 16 -20 19 -11 3
-20 12 -20 21 0 9 -7 16 -15 16 -10 0 -15 11 -15 35 0 24 -5 35 -15 35 -10 0
-15 10 -15 30 0 20 5 30 15 30 8 0 15 7 15 15 0 8 14 17 35 21 32 6 35 9 35
40 0 24 5 34 15 34 10 0 15 10 15 30 0 18 6 33 15 36 27 11 17 34 -15 34 -19
0 -30 -5 -30 -14 0 -7 -9 -16 -20 -19 -11 -3 -20 -12 -20 -21 0 -9 -7 -16 -15
-16 -10 0 -15 -10 -15 -29 0 -20 -6 -30 -20 -34 -11 -3 -20 -12 -20 -21 0 -9
-7 -16 -15 -16 -8 0 -15 -7 -15 -15 0 -10 -11 -15 -35 -15 -24 0 -35 5 -35 15
0 11 -12 15 -50 15 -38 0 -50 -4 -50 -15 0 -9 -7 -18 -15 -21 -8 -4 -15 -12
-15 -20 0 -8 -9 -14 -20 -14 -18 0 -20 -7 -20 -64 0 -58 2 -64 23 -70 37 -10
47 -7 47 14 0 13 7 20 20 20 11 0 20 7 20 15 0 8 7 15 15 15 8 0 15 7 15 15 0
8 3 15 8 15 4 0 17 3 30 6 18 5 22 2 22 -15 0 -12 -6 -21 -15 -21 -8 0 -15 -9
-15 -20 0 -11 -7 -20 -15 -20 -10 0 -15 -10 -15 -30 0 -19 -5 -30 -14 -30 -16
0 -26 -30 -26 -77 0 -20 5 -33 13 -33 29 0 57 13 57 26 0 8 9 14 20 14 11 0
20 7 20 15 0 8 7 15 15 15 10 0 15 -10 15 -30 0 -19 -5 -30 -14 -30 -13 0 -26
-41 -26 -86 0 -15 -6 -24 -15 -24 -11 0 -15 -12 -15 -50 0 -38 4 -50 15 -50 8
0 15 -7 15 -15 0 -11 11 -15 40 -15 22 0 40 5 40 10 0 6 7 10 15 10 12 0 15
-15 15 -79 l0 -79 30 -7 c49 -11 180 5 180 21 0 10 14 14 50 14 36 0 50 4 50
14 0 9 18 16 50 20 34 5 50 11 50 21 0 11 13 15 55 15 41 0 55 4 55 14 0 10
19 16 65 21 45 5 65 12 65 21 0 10 14 14 50 14 36 0 50 4 50 14 0 9 18 15 52
19 28 4 55 12 59 18 3 6 27 14 53 16 30 4 46 10 46 19 0 10 14 14 50 14 35 0
52 5 58 16 5 10 28 18 55 21 31 4 47 10 47 19 0 9 12 14 35 14 24 0 35 5 35
14 0 8 14 17 30 21 17 4 30 13 30 21 0 8 9 14 20 14 11 0 20 6 20 14 0 7 9 16
20 19 11 3 20 12 20 21 0 9 7 16 15 16 8 0 15 7 15 15 0 8 7 15 15 15 8 0 15
7 15 16 0 9 9 18 20 21 11 3 20 12 20 19 0 8 7 14 15 14 8 0 15 6 15 14 0 7 9
16 20 19 11 3 20 12 20 21 0 9 7 16 15 16 8 0 15 6 15 14 0 7 9 16 20 19 11 3
20 12 20 21 0 9 7 16 15 16 8 0 15 7 15 15 0 8 7 15 15 15 8 0 15 7 15 16 0 9
9 18 20 21 11 3 20 12 20 19 0 8 7 14 15 14 8 0 15 7 15 16 0 9 9 18 20 21 11
3 20 12 20 19 0 8 7 14 15 14 8 0 15 6 15 14 0 7 9 16 20 19 11 3 20 12 20 21
0 9 7 16 15 16 8 0 15 6 15 14 0 7 9 16 20 19 11 3 20 12 20 21 0 9 7 16 15
16 8 0 15 7 15 15 0 8 7 15 15 15 8 0 15 7 15 16 0 9 9 18 20 21 11 3 20 12
20 19 0 8 7 14 15 14 8 0 15 6 15 14 0 15 42 26 101 26 28 0 39 4 39 15 0 8 7
15 15 15 8 0 15 7 15 15 0 8 6 15 13 15 6 0 22 3 35 6 20 6 22 3 22 -30 0 -34
1 -36 35 -36 24 0 35 5 35 15 0 8 7 15 15 15 8 0 15 9 15 20 0 11 -7 20 -15
20 -23 0 -18 49 8 76 12 13 28 24 35 24 6 0 12 9 12 20 0 11 7 20 15 20 8 0
15 7 15 15 0 8 7 15 15 15 8 0 15 7 15 16 0 9 9 18 20 21 14 4 20 14 20 34 0
26 -3 29 -35 29 -24 0 -35 -5 -35 -15 0 -8 -7 -15 -15 -15 -8 0 -15 -9 -15
-20 0 -13 -7 -20 -20 -20 -11 0 -20 -7 -20 -15 0 -10 -11 -15 -35 -15 -24 0
-35 5 -35 15 0 8 9 15 20 15 13 0 20 7 20 20 0 11 7 20 15 20 8 0 15 7 15 15
0 8 9 15 20 15 11 0 20 7 20 15 0 8 7 15 15 15 8 0 15 9 15 20 0 13 7 20 20
20 11 0 20 7 20 15 0 8 7 15 15 15 8 0 15 9 15 20 0 13 7 20 20 20 11 0 20 7
20 15 0 8 7 15 15 15 8 0 15 9 15 20 0 13 7 20 20 20 11 0 20 7 20 15 0 8 7
15 15 15 8 0 15 9 15 20 0 13 7 20 20 20 11 0 20 7 20 15 0 8 7 15 15 15 8 0
15 6 15 14 0 8 15 17 35 20 21 4 35 13 35 21 0 8 7 15 15 15 8 0 15 7 15 15 0
9 6 18 14 21 8 3 18 19 21 35 4 16 13 29 21 29 8 0 14 9 14 20 0 11 7 20 15
20 8 0 15 7 15 15 0 8 9 15 20 15 13 0 20 7 20 20 0 11 7 20 15 20 8 0 15 7
15 15 0 10 11 15 35 15 l35 0 0 -1135 0 -1135 -2298 0 -2299 0 -6 1133 c-4
622 -7 1844 -7 2715 l0 1582 2310 0 2310 0 0 -874z m-420 -901 c0 -10 11 -15
35 -15 24 0 35 -5 35 -15 0 -10 10 -15 31 -15 22 0 32 -5 36 -20 3 -11 12 -20
19 -20 8 0 14 -7 14 -15 0 -8 9 -15 20 -15 13 0 20 -7 20 -20 0 -11 7 -20 15
-20 10 0 15 -10 15 -30 0 -19 5 -30 14 -30 9 0 16 -19 20 -59 8 -68 0 -111
-20 -111 -8 0 -14 -7 -14 -15 0 -8 -7 -15 -16 -15 -9 0 -18 -8 -21 -19 -3 -14
-17 -20 -54 -25 -27 -4 -49 -11 -49 -16 0 -6 -13 -10 -30 -10 -20 0 -30 5 -30
15 0 8 -9 15 -20 15 -11 0 -20 7 -20 15 0 8 -7 15 -15 15 -8 0 -15 9 -15 20 0
13 -7 20 -20 20 -11 0 -20 7 -20 15 0 8 -7 15 -15 15 -8 0 -15 9 -15 20 0 11
-6 20 -14 20 -8 0 -17 14 -21 30 -4 17 -13 30 -21 30 -8 0 -14 7 -14 15 0 8
-7 15 -16 15 -9 0 -18 9 -21 20 -3 11 -12 20 -19 20 -10 0 -14 15 -14 55 0 41
4 55 14 55 8 0 17 14 21 30 6 25 11 30 36 30 17 0 32 6 35 15 5 11 22 15 70
15 50 0 64 -3 64 -15z m-180 -340 c0 -8 -4 -15 -10 -15 -5 0 -10 7 -10 15 0 8
5 15 10 15 6 0 10 -7 10 -15z m40 -35 c0 -5 -7 -10 -15 -10 -8 0 -15 5 -15 10
0 6 7 10 15 10 8 0 15 -4 15 -10z m-100 -35 c0 -8 7 -15 15 -15 8 0 15 -7 15
-15 0 -8 -7 -15 -15 -15 -8 0 -15 7 -15 15 0 8 -7 15 -15 15 -8 0 -15 7 -15
15 0 8 7 15 15 15 8 0 15 -7 15 -15z m130 5 c0 -5 -4 -10 -10 -10 -5 0 -10 5
-10 10 0 6 5 10 10 10 6 0 10 -4 10 -10z m40 -35 c0 -8 -7 -15 -15 -15 -8 0
-15 7 -15 15 0 8 7 15 15 15 8 0 15 -7 15 -15z m-110 -35 c0 -5 -4 -10 -10
-10 -5 0 -10 5 -10 10 0 6 5 10 10 10 6 0 10 -4 10 -10z m140 0 c0 -5 -7 -10
-15 -10 -8 0 -15 5 -15 10 0 6 7 10 15 10 8 0 15 -4 15 -10z m-100 -35 c0 -8
-7 -15 -15 -15 -8 0 -15 7 -15 15 0 8 7 15 15 15 8 0 15 -7 15 -15z m140 0 c0
-8 7 -15 15 -15 8 0 15 -7 15 -15 0 -8 -7 -15 -15 -15 -8 0 -15 7 -15 15 0 8
-7 15 -15 15 -8 0 -15 7 -15 15 0 8 7 15 15 15 8 0 15 -7 15 -15z m-110 -35
c0 -5 -4 -10 -10 -10 -5 0 -10 5 -10 10 0 6 5 10 10 10 6 0 10 -4 10 -10z
m-1090 -35 c0 -8 -9 -15 -20 -15 -13 0 -20 -7 -20 -20 0 -11 -7 -20 -15 -20
-8 0 -15 -7 -15 -15 0 -8 -9 -15 -20 -15 -11 0 -20 -7 -20 -15 0 -8 -7 -15
-15 -15 -8 0 -15 -9 -15 -20 0 -11 -7 -20 -15 -20 -10 0 -15 11 -15 35 0 24 5
35 15 35 8 0 15 7 15 15 0 8 7 15 15 15 8 0 15 9 15 20 0 13 7 20 20 20 11 0
20 7 20 15 0 10 11 15 35 15 24 0 35 -5 35 -15z m1130 0 c0 -8 -7 -15 -15 -15
-8 0 -15 7 -15 15 0 8 7 15 15 15 8 0 15 -7 15 -15z m140 0 c0 -8 -7 -15 -15
-15 -8 0 -15 7 -15 15 0 8 7 15 15 15 8 0 15 -7 15 -15z m30 -35 c0 -5 -7 -10
-15 -10 -8 0 -15 5 -15 10 0 6 7 10 15 10 8 0 15 -4 15 -10z m-650 -35 c0 -8
-7 -15 -15 -15 -8 0 -15 7 -15 15 0 8 7 15 15 15 8 0 15 -7 15 -15z m140 0 c0
-8 9 -15 20 -15 11 0 20 -7 20 -15 0 -9 12 -18 30 -21 17 -4 30 -13 30 -20 0
-8 7 -14 15 -14 8 0 15 -7 15 -16 0 -9 9 -18 20 -21 11 -3 20 -12 20 -19 0 -8
6 -14 14 -14 7 0 16 -14 20 -30 4 -24 12 -32 36 -36 16 -4 30 -13 30 -20 0 -8
7 -14 15 -14 8 0 15 -7 15 -16 0 -9 9 -18 20 -21 25 -7 29 -63 5 -63 -8 0 -15
7 -15 15 0 8 -9 15 -20 15 -13 0 -20 7 -20 20 0 11 -7 20 -15 20 -8 0 -15 7
-15 15 0 8 -7 15 -15 15 -8 0 -15 9 -15 20 0 13 -7 20 -20 20 -11 0 -20 7 -20
15 0 8 -7 15 -15 15 -8 0 -15 7 -15 15 0 8 -9 15 -20 15 -13 0 -20 7 -20 20 0
11 -7 20 -15 20 -8 0 -15 6 -15 14 0 7 -9 16 -20 19 -11 3 -20 12 -20 21 0 9
-7 16 -15 16 -8 0 -15 7 -15 15 0 8 -7 15 -15 15 -8 0 -15 7 -15 15 0 8 7 15
15 15 8 0 15 -7 15 -15z m580 -30 c0 -8 -7 -15 -15 -15 -8 0 -15 7 -15 15 0 8
7 15 15 15 8 0 15 -7 15 -15z m30 -35 c0 -5 -4 -10 -10 -10 -5 0 -10 5 -10 10
0 6 5 10 10 10 6 0 10 -4 10 -10z m40 -35 c0 -8 -7 -15 -15 -15 -8 0 -15 7
-15 15 0 8 7 15 15 15 8 0 15 -7 15 -15z m-2480 -1000 c0 -8 -4 -15 -10 -15
-5 0 -10 7 -10 15 0 8 5 15 10 15 6 0 10 -7 10 -15z m-1060 -410 c0 -8 -7 -15
-15 -15 -8 0 -15 7 -15 15 0 8 7 15 15 15 8 0 15 -7 15 -15z m760 2 c0 -7 -9
-20 -20 -30 -11 -9 -20 -26 -20 -37 0 -11 -7 -20 -15 -20 -8 0 -15 -6 -15 -14
0 -7 -9 -16 -20 -19 -11 -3 -20 -12 -20 -21 0 -9 -7 -16 -15 -16 -10 0 -15 11
-15 35 0 24 5 35 15 35 8 0 15 7 15 16 0 9 9 18 20 21 11 3 20 12 20 19 0 8 7
14 15 14 8 0 15 7 15 15 0 8 9 15 20 15 11 0 20 -6 20 -13z m2160 -2 c0 -10
-10 -15 -30 -15 -20 0 -30 5 -30 15 0 10 10 15 30 15 20 0 30 -5 30 -15z
m-2960 -40 c0 -8 -7 -15 -15 -15 -10 0 -15 -10 -15 -30 0 -27 -3 -30 -30 -30
-32 0 -40 14 -15 24 8 3 15 12 15 21 0 8 7 15 15 15 8 0 15 7 15 15 0 8 7 15
15 15 8 0 15 -7 15 -15z m-400 -80 c0 -28 -4 -35 -20 -35 -11 0 -20 -7 -20
-15 0 -25 -27 -17 -34 10 -8 30 -1 45 20 45 8 0 14 7 14 15 0 8 9 15 20 15 16
0 20 -7 20 -35z m2090 -500 c0 -8 7 -15 15 -15 8 0 15 -7 15 -15 0 -8 -7 -15
-15 -15 -8 0 -15 -9 -15 -20 0 -11 -7 -20 -15 -20 -8 0 -15 9 -15 20 0 13 -7
20 -20 20 -11 0 -20 7 -20 15 0 8 -7 15 -15 15 -8 0 -15 7 -15 15 0 11 12 15
50 15 38 0 50 -4 50 -15z"/>
<path d="M4280 7111 c0 -5 -9 -11 -20 -14 -11 -3 -20 -12 -20 -21 0 -9 -7 -16
-15 -16 -8 0 -15 -7 -15 -16 0 -9 -9 -18 -20 -21 -14 -4 -20 -14 -20 -34 0
-19 -5 -29 -15 -29 -8 0 -15 -9 -15 -20 0 -11 -6 -20 -14 -20 -7 0 -16 -9 -19
-20 -3 -11 -12 -20 -21 -20 -9 0 -16 -7 -16 -15 0 -8 -6 -15 -14 -15 -7 0 -16
-9 -19 -20 -3 -11 -13 -20 -22 -20 -30 0 -9 -25 23 -28 27 -3 32 0 32 17 0 14
6 21 20 21 11 0 20 7 20 15 0 8 7 15 15 15 8 0 15 -7 15 -15 0 -8 9 -15 20
-15 11 0 20 7 20 15 0 8 7 15 15 15 8 0 15 -7 15 -15 0 -10 11 -15 35 -15 24
0 35 5 35 15 0 10 10 15 30 15 21 0 30 5 30 16 0 9 9 18 20 21 11 3 20 12 20
19 0 11 -17 14 -70 14 -56 0 -70 -3 -70 -15 0 -11 -11 -15 -36 -15 -33 0 -36
2 -30 23 3 12 6 25 6 30 0 4 7 7 15 7 8 0 15 9 15 20 0 15 7 20 29 20 31 0 41
18 41 73 0 17 5 27 15 27 8 0 15 7 15 15 0 8 -7 15 -15 15 -8 0 -15 -4 -15 -9z"/>
<path d="M3284 7055 c-3 -20 -12 -35 -20 -35 -10 0 -14 -14 -14 -50 0 -43 -3
-50 -20 -50 -16 0 -20 -7 -20 -35 0 -24 -5 -35 -15 -35 -8 0 -15 -7 -15 -15 0
-8 7 -15 15 -15 8 0 15 7 15 15 0 8 7 15 15 15 9 0 18 7 21 15 4 8 12 15 20
15 8 0 14 -7 14 -15 0 -8 7 -15 15 -15 8 0 15 7 15 15 0 8 9 15 20 15 16 0 20
7 20 35 0 24 5 35 15 35 8 0 15 9 15 20 0 13 7 20 20 20 16 0 20 7 20 35 0 24
5 35 15 35 8 0 15 7 15 15 0 8 -7 15 -15 15 -8 0 -15 -7 -15 -15 0 -9 -6 -18
-14 -21 -8 -3 -18 -19 -21 -35 -4 -16 -13 -29 -21 -29 -8 0 -14 -9 -14 -20 0
-11 -7 -20 -15 -20 -8 0 -15 -7 -15 -15 0 -8 -9 -15 -20 -15 -17 0 -20 7 -20
50 0 38 4 50 15 50 10 0 15 11 15 35 0 19 -4 35 -10 35 -5 0 -12 -16 -16 -35z"/>
<path d="M4690 7060 c0 -21 -5 -30 -16 -30 -9 0 -18 -9 -21 -20 -3 -11 -12
-20 -19 -20 -9 0 -14 -12 -14 -35 0 -24 -5 -35 -15 -35 -8 0 -15 -7 -15 -15 0
-8 -9 -15 -20 -15 -13 0 -20 -7 -20 -20 0 -11 -7 -20 -15 -20 -8 0 -15 -7 -15
-15 0 -8 7 -15 15 -15 8 0 15 7 15 15 0 10 11 15 35 15 24 0 35 -5 35 -15 0
-8 9 -15 20 -15 11 0 20 7 20 15 0 10 10 15 31 15 22 0 32 5 36 20 3 11 10 20
15 20 5 0 12 -9 15 -20 5 -18 14 -20 104 -20 81 0 99 3 99 15 0 8 -7 15 -15
15 -10 0 -15 11 -15 35 0 24 -5 35 -15 35 -8 0 -15 -7 -15 -15 0 -8 -9 -15
-20 -15 -11 0 -20 -7 -20 -15 0 -8 -7 -15 -15 -15 -10 0 -15 10 -15 30 0 18
-6 33 -15 36 -8 4 -15 12 -15 20 0 8 7 14 15 14 8 0 15 7 15 15 0 8 7 15 15
15 8 0 15 9 15 20 0 11 7 20 15 20 8 0 15 7 15 15 0 10 -10 15 -30 15 -23 0
-30 -4 -30 -20 0 -11 -7 -20 -15 -20 -8 0 -15 -7 -15 -15 0 -8 -9 -15 -20 -15
-15 0 -20 -7 -20 -29 0 -20 -6 -30 -20 -34 -11 -3 -20 -12 -20 -21 0 -9 -7
-16 -15 -16 -8 0 -15 -7 -15 -15 0 -8 -6 -15 -12 -15 -7 0 -23 -3 -35 -6 -19
-5 -23 -2 -23 15 0 12 6 21 15 21 8 0 15 7 15 16 0 9 9 18 20 21 11 3 20 12
20 19 0 8 6 14 14 14 8 0 17 15 20 35 4 21 13 35 21 35 8 0 15 7 15 15 0 10
-11 15 -35 15 -32 0 -35 -2 -35 -30z"/>
<path d="M6200 7005 c0 -10 -10 -15 -30 -15 -23 0 -30 -4 -30 -20 0 -16 -7
-20 -35 -20 -24 0 -35 -5 -35 -15 0 -8 -9 -15 -20 -15 -11 0 -20 -6 -20 -14 0
-7 -9 -16 -20 -19 -11 -3 -20 -12 -20 -21 0 -11 -9 -16 -30 -16 -20 0 -30 5
-30 15 0 8 -7 15 -16 15 -9 0 -18 9 -21 20 -3 11 -12 20 -19 20 -8 0 -14 7
-14 15 0 8 -7 15 -15 15 -8 0 -15 -7 -15 -15 0 -10 -10 -15 -34 -15 -26 0 -35
-5 -39 -21 -4 -15 -11 -20 -22 -15 -9 3 -23 6 -31 6 -9 0 -14 11 -14 30 0 28
-3 30 -35 30 -24 0 -35 -5 -35 -15 0 -8 -9 -15 -20 -15 -11 0 -20 7 -20 15 0
18 -1 18 -152 15 -114 -2 -118 -1 -118 19 0 17 -6 21 -35 21 -24 0 -35 -5 -35
-15 0 -8 -14 -17 -35 -21 -32 -6 -35 -9 -35 -40 0 -24 -5 -34 -15 -34 -8 0
-15 -4 -15 -10 0 -5 7 -10 15 -10 8 0 15 -9 15 -20 0 -17 7 -20 50 -20 38 0
50 4 50 15 0 8 9 15 20 15 11 0 20 7 20 15 0 8 6 15 13 15 6 0 22 3 35 6 17 5
22 2 22 -13 0 -19 8 -20 105 -22 88 -1 105 1 105 14 0 8 7 15 15 15 8 0 15 -7
15 -15 0 -9 9 -15 21 -15 17 0 20 -4 15 -22 -3 -13 -6 -26 -6 -30 0 -5 -7 -8
-15 -8 -8 0 -15 -9 -15 -20 0 -11 -7 -20 -15 -20 -10 0 -15 -11 -15 -35 0 -32
3 -35 29 -35 25 0 30 5 35 35 4 21 13 35 21 35 10 0 15 10 15 30 0 21 5 30 16
30 9 0 18 9 21 19 3 12 17 23 34 26 16 4 29 13 29 22 0 31 35 8 38 -25 2 -20
9 -32 18 -32 8 0 14 -9 14 -20 0 -11 -7 -20 -15 -20 -8 0 -15 -7 -15 -16 0 -9
-9 -18 -20 -21 -11 -3 -20 -12 -20 -19 0 -8 -7 -14 -15 -14 -10 0 -15 -10 -15
-30 0 -18 -6 -33 -15 -36 -17 -7 -21 -34 -5 -34 6 0 10 -7 10 -15 0 -8 9 -15
20 -15 11 0 20 6 20 14 0 7 14 16 30 20 24 4 32 12 36 36 4 16 13 30 20 30 9
0 14 11 14 28 0 51 11 71 41 77 16 4 29 13 29 21 0 8 9 14 20 14 11 0 20 7 20
15 0 8 7 15 15 15 8 0 15 6 15 14 0 8 15 17 35 20 21 4 35 13 35 21 0 8 9 15
20 15 11 0 20 6 20 14 0 8 14 17 30 21 17 4 30 13 30 21 0 8 9 14 20 14 11 0
20 7 20 15 0 8 -9 15 -20 15 -11 0 -20 -7 -20 -15z m-920 -102 c0 -29 -14 -42
-48 -49 -31 -6 -32 -6 -32 30 0 35 1 36 40 36 31 0 40 -4 40 -17z m580 -208
c0 -8 -6 -15 -14 -15 -7 0 -16 -9 -19 -20 -3 -11 -12 -20 -21 -20 -9 0 -16 8
-16 20 0 13 7 20 20 20 11 0 20 7 20 15 0 8 7 15 15 15 8 0 15 -7 15 -15z"/>
<path d="M3730 6975 c0 -8 7 -15 15 -15 8 0 15 7 15 15 0 8 -7 15 -15 15 -8 0
-15 -7 -15 -15z"/>
<path d="M6258 6983 c-10 -2 -18 -11 -18 -19 0 -8 -6 -14 -14 -14 -8 0 -17
-13 -21 -30 -4 -16 -13 -30 -21 -30 -23 0 -16 -27 9 -34 12 -3 41 -6 65 -6 32
0 42 4 42 16 0 9 9 18 20 21 11 3 20 12 20 19 0 9 12 14 35 14 37 0 50 -25 20
-36 -8 -4 -15 -10 -15 -15 0 -5 7 -9 15 -9 8 0 15 5 15 10 0 6 7 10 16 10 9 0
18 9 21 20 8 31 21 24 29 -15 6 -32 9 -35 40 -35 24 0 34 5 34 15 0 8 7 15 15
15 8 0 15 -7 15 -15 0 -10 11 -15 35 -15 24 0 35 5 35 15 0 10 11 15 35 15 25
0 35 -4 35 -16 0 -11 8 -14 31 -12 l32 3 2 68 c2 59 0 67 -16 67 -11 0 -19 -6
-19 -14 0 -8 -13 -17 -30 -21 -16 -4 -30 -13 -30 -21 0 -8 -9 -14 -20 -14 -11
0 -20 -7 -20 -15 0 -8 -7 -15 -15 -15 -8 0 -15 7 -15 15 0 8 7 15 15 15 8 0
15 7 15 15 0 8 7 15 15 15 8 0 15 9 15 20 0 16 -7 20 -35 20 -28 0 -35 -4 -35
-20 0 -11 -7 -20 -15 -20 -8 0 -15 6 -15 14 0 18 -31 26 -107 26 -48 0 -64 -4
-73 -17 -10 -17 -10 -17 -20 0 -8 13 -23 17 -58 16 -26 -1 -55 -3 -64 -6z m42
-48 c0 -8 -7 -15 -15 -15 -9 0 -15 -9 -15 -21 0 -14 -5 -19 -17 -17 -26 5 -29
38 -4 38 12 0 21 6 21 15 0 8 7 15 15 15 8 0 15 -7 15 -15z"/>
<path d="M3420 6935 c0 -8 -6 -15 -14 -15 -7 0 -16 -9 -19 -20 -3 -11 -12 -20
-21 -20 -13 0 -16 -11 -16 -50 l0 -50 50 0 c43 0 50 3 50 20 0 13 7 20 20 20
11 0 20 7 20 15 0 8 7 15 15 15 8 0 15 -8 15 -18 0 -16 8 -18 73 -16 39 1 78
3 85 3 17 1 15 31 -3 31 -8 0 -15 9 -15 20 0 11 7 20 15 20 8 0 15 7 15 15 0
12 -16 15 -85 15 -69 0 -85 -3 -85 -15 0 -10 -10 -15 -29 -15 -25 0 -31 5 -36
30 -7 30 -35 43 -35 15z"/>
<path d="M3840 6935 c0 -8 -9 -15 -20 -15 -11 0 -20 -7 -20 -15 0 -7 -8 -19
-17 -24 -16 -9 -16 -12 -3 -21 8 -5 23 -10 33 -10 32 0 18 -28 -19 -34 -41 -8
-41 -29 0 -34 19 -2 35 3 47 17 23 24 25 51 4 51 -8 0 -15 9 -15 20 0 11 7 20
15 20 10 0 15 10 15 30 0 17 -4 30 -10 30 -5 0 -10 -7 -10 -15z"/>
<path d="M3150 6765 c0 -8 5 -15 10 -15 6 0 10 7 10 15 0 8 -4 15 -10 15 -5 0
-10 -7 -10 -15z"/>
<path d="M3145 6500 c-8 -14 3 -30 21 -30 8 0 14 9 14 20 0 21 -24 28 -35 10z"/>
<path d="M3262 6503 c-26 -5 -25 -28 1 -27 10 0 40 1 67 2 37 2 50 6 50 17 0
11 -11 15 -47 14 -27 -1 -58 -4 -71 -6z"/>
<path d="M4450 6495 c0 -8 -7 -15 -15 -15 -8 0 -15 -8 -15 -19 0 -10 -9 -21
-20 -24 -15 -4 -20 -14 -20 -36 0 -21 -5 -31 -15 -31 -8 0 -15 -7 -15 -15 0
-9 -6 -18 -14 -21 -8 -3 -18 -18 -21 -34 -4 -19 -14 -30 -31 -34 -34 -9 -44 0
-44 40 0 38 -24 48 -33 14 -4 -15 -14 -20 -36 -20 -24 0 -31 4 -31 20 0 11 -7
20 -15 20 -8 0 -15 -9 -15 -20 0 -13 -7 -20 -20 -20 -11 0 -20 -7 -20 -15 0
-8 -7 -15 -15 -15 -10 0 -15 10 -15 30 0 22 -5 30 -17 31 -115 7 -153 3 -168
-13 -8 -10 -24 -18 -35 -18 -11 0 -20 -6 -20 -14 0 -7 -9 -16 -20 -19 -15 -4
-20 -14 -20 -36 0 -24 4 -31 20 -31 13 0 20 7 20 20 0 11 7 20 15 20 8 0 15 7
15 15 0 22 27 18 33 -5 4 -15 13 -20 34 -18 69 4 113 -2 113 -17 0 -10 10 -15
30 -15 20 0 30 5 30 15 0 12 13 15 55 15 42 0 55 -3 55 -15 0 -10 11 -15 35
-15 32 0 35 -3 35 -27 0 -43 -11 -73 -26 -73 -8 0 -14 -9 -14 -20 0 -11 -6
-20 -14 -20 -14 0 -33 -56 -23 -67 11 -10 67 9 67 23 0 8 7 14 15 14 8 0 17
14 21 35 3 20 12 35 20 35 9 0 14 11 14 30 0 18 6 33 15 36 8 4 15 12 15 20 0
8 9 14 20 14 11 0 20 7 20 15 0 8 9 15 20 15 11 0 20 -7 20 -15 0 -10 11 -15
35 -15 24 0 35 5 35 15 0 10 10 15 30 15 20 0 30 -5 30 -15 0 -12 14 -15 70
-15 l70 0 0 50 0 50 -35 0 c-24 0 -35 -5 -35 -15 0 -10 -10 -15 -30 -15 -20 0
-30 5 -30 15 0 8 7 15 15 15 8 0 15 7 15 15 0 8 7 15 15 15 8 0 15 9 15 20 0
13 7 20 20 20 11 0 20 7 20 15 0 8 7 15 15 15 8 0 15 9 15 20 0 11 7 20 15 20
8 0 15 6 15 13 0 6 3 22 6 35 5 18 2 22 -15 22 -14 0 -21 -6 -21 -20 0 -11 -7
-20 -15 -20 -8 0 -15 -7 -15 -15 0 -8 -9 -15 -20 -15 -13 0 -20 -7 -20 -20 0
-11 -6 -20 -14 -20 -8 0 -17 -13 -21 -30 -4 -16 -13 -30 -21 -30 -8 0 -14 -9
-14 -20 0 -11 -7 -20 -15 -20 -8 0 -15 -7 -15 -15 0 -8 -6 -15 -12 -15 -7 0
-23 -3 -35 -6 -19 -5 -23 -2 -23 15 0 12 -6 21 -15 21 -8 0 -15 -7 -15 -15 0
-8 -9 -15 -20 -15 -13 0 -20 -7 -20 -20 0 -11 -7 -20 -15 -20 -10 0 -15 11
-15 35 0 24 5 35 15 35 8 0 15 9 15 20 0 11 7 20 15 20 8 0 15 7 15 15 0 8 9
15 20 15 13 0 20 7 20 20 0 11 6 20 14 20 15 0 26 30 26 73 0 20 -5 27 -20 27
-11 0 -20 -7 -20 -15z"/>
<path d="M6393 6486 c-13 -13 -23 -29 -23 -35 0 -6 -7 -11 -15 -11 -8 0 -15
-9 -15 -20 0 -11 -6 -20 -14 -20 -8 0 -17 -13 -21 -30 -4 -16 -13 -30 -21 -30
-8 0 -14 -9 -14 -20 0 -11 -7 -20 -15 -20 -8 0 -15 -7 -15 -15 0 -8 -9 -15
-20 -15 -16 0 -20 7 -20 35 0 32 -2 35 -31 35 -22 0 -32 -5 -36 -20 -7 -25
-63 -29 -63 -5 0 8 7 15 15 15 8 0 15 9 15 20 0 13 7 20 20 20 11 0 20 7 20
15 0 8 7 15 15 15 8 0 15 9 15 20 0 11 7 20 15 20 10 0 15 10 15 30 0 20 -5
30 -15 30 -8 0 -15 -4 -15 -9 0 -5 -9 -11 -20 -14 -11 -3 -20 -12 -20 -21 0
-9 -7 -16 -15 -16 -8 0 -15 -9 -15 -20 0 -11 -7 -20 -15 -20 -8 0 -15 -7 -15
-15 0 -8 -9 -15 -20 -15 -16 0 -20 -7 -20 -35 0 -24 -5 -35 -15 -35 -8 0 -15
-7 -15 -15 0 -8 -9 -15 -20 -15 -11 0 -20 7 -20 15 0 11 -12 15 -50 15 -49 0
-50 -1 -50 -30 0 -23 -4 -30 -20 -30 -16 0 -19 5 -14 29 6 28 5 29 -42 33 -63
5 -94 -1 -94 -18 0 -7 -6 -17 -14 -21 -8 -4 -18 -20 -21 -35 -6 -24 -4 -28 14
-28 12 0 21 6 21 14 0 7 10 16 21 19 32 8 79 -3 79 -19 0 -11 23 -14 105 -14
87 0 105 -3 105 -15 0 -8 6 -15 14 -15 8 0 16 7 20 15 3 8 12 15 21 15 8 0 15
7 15 15 0 10 10 15 30 15 20 0 30 -5 30 -15 0 -12 13 -15 55 -15 42 0 55 3 55
15 0 10 10 15 30 15 20 0 30 -5 30 -15 0 -8 9 -15 20 -15 11 0 20 -7 20 -15 0
-12 14 -15 70 -15 39 0 70 4 70 10 0 5 16 12 36 16 25 5 34 11 32 23 -3 13
-14 15 -56 13 -47 -4 -52 -2 -52 17 0 12 -6 21 -15 21 -8 0 -15 7 -15 15 0 8
7 15 15 15 8 0 15 9 15 20 0 16 -7 20 -31 20 -22 0 -32 -5 -36 -20 -3 -11 -12
-20 -19 -20 -8 0 -14 -7 -14 -15 0 -8 -7 -15 -15 -15 -8 0 -15 7 -15 15 0 8 7
15 15 15 10 0 15 11 15 35 0 28 4 35 20 35 11 0 20 7 20 15 0 8 7 15 15 15 8
0 15 9 15 20 0 11 7 20 15 20 8 0 15 7 15 15 0 9 7 18 15 21 8 4 15 12 15 20
0 23 -53 16 -77 -10z m-193 -236 c0 -5 -7 -10 -15 -10 -8 0 -15 5 -15 10 0 6
7 10 15 10 8 0 15 -4 15 -10z"/>
<path d="M5268 6488 c-3 -9 -35 -14 -101 -16 -75 -3 -97 -7 -97 -18 0 -9 11
-14 28 -14 37 0 72 -10 72 -21 0 -5 -7 -9 -15 -9 -11 0 -15 -11 -15 -40 0 -28
-4 -40 -15 -40 -8 0 -17 -14 -21 -35 -3 -20 -12 -35 -20 -35 -9 0 -14 -11 -14
-30 0 -20 5 -30 15 -30 8 0 15 7 15 15 0 9 7 18 15 21 8 3 17 21 21 40 3 19
12 34 20 34 10 0 14 13 14 44 0 35 4 45 20 49 11 3 20 12 20 21 0 13 11 16 50
16 49 0 50 1 50 30 0 23 -5 30 -19 30 -11 0 -21 -6 -23 -12z"/>
<path d="M5340 6455 c0 -8 -7 -15 -15 -15 -10 0 -15 -11 -15 -35 0 -28 -4 -35
-20 -35 -11 0 -20 -7 -20 -15 0 -8 -7 -15 -15 -15 -8 0 -15 -9 -15 -20 0 -11
-6 -20 -14 -20 -8 0 -17 -13 -21 -30 -4 -16 -13 -30 -21 -30 -8 0 -14 -9 -14
-20 0 -16 7 -20 35 -20 24 0 35 5 35 15 0 10 11 15 35 15 24 0 35 -5 35 -15 0
-12 14 -15 70 -15 l70 0 0 50 0 50 -34 0 c-25 0 -35 -5 -39 -20 -8 -30 -24
-24 -31 11 -11 58 -8 79 14 79 13 0 20 7 20 20 0 11 7 20 15 20 10 0 15 10 15
30 0 28 -3 30 -35 30 -24 0 -35 -5 -35 -15z"/>
<path d="M3250 6420 c0 -11 -7 -20 -15 -20 -8 0 -17 -14 -21 -35 -3 -20 -12
-35 -20 -35 -9 0 -14 -12 -14 -35 0 -23 -5 -35 -14 -35 -7 0 -16 -10 -20 -22
-9 -35 -8 -38 14 -38 13 0 20 7 20 20 0 11 7 20 15 20 10 0 15 11 15 35 0 24
5 35 14 35 8 0 17 14 21 30 4 17 13 30 21 30 9 0 14 11 14 35 0 24 -5 35 -15
35 -8 0 -15 -9 -15 -20z"/>
<path d="M3380 6420 c0 -11 -7 -20 -15 -20 -8 0 -15 -7 -15 -15 0 -8 -6 -15
-14 -15 -8 0 -17 -15 -20 -35 -4 -21 -13 -35 -21 -35 -8 0 -15 -7 -15 -15 0
-8 -7 -15 -15 -15 -8 0 -15 -9 -15 -20 0 -11 -7 -20 -15 -20 -8 0 -15 -7 -15
-15 0 -12 14 -15 65 -15 51 0 65 3 65 15 0 8 7 15 15 15 8 0 15 -7 15 -15 0
-12 17 -15 90 -15 72 0 90 3 90 15 0 7 -8 18 -17 24 -17 9 -17 11 0 23 14 10
17 21 12 41 -7 28 -35 38 -35 12 0 -8 -7 -15 -15 -15 -8 0 -15 -7 -15 -15 0
-8 -9 -15 -20 -15 -11 0 -20 7 -20 15 0 8 -8 15 -17 15 -10 0 -25 5 -33 10
-13 9 -13 12 3 21 11 6 17 22 17 44 0 24 5 35 15 35 23 0 18 17 -7 24 -38 10
-48 7 -48 -14z"/>
<path d="M4490 6355 c0 -8 7 -15 15 -15 8 0 15 7 15 15 0 8 -7 15 -15 15 -8 0
-15 -7 -15 -15z"/>
<path d="M3110 6186 c0 -10 9 -16 21 -16 24 0 21 23 -4 28 -10 2 -17 -3 -17
-12z"/>
<path d="M5310 5925 c0 -28 -4 -35 -20 -35 -11 0 -20 -7 -20 -15 0 -8 -7 -15
-15 -15 -8 0 -15 -9 -15 -20 0 -11 -6 -20 -14 -20 -7 0 -16 -9 -19 -20 -3 -11
-12 -20 -21 -20 -11 0 -16 -9 -16 -30 0 -19 -5 -30 -14 -30 -7 0 -16 -9 -19
-20 -3 -11 -12 -20 -21 -20 -9 0 -16 -7 -16 -15 0 -8 -7 -15 -15 -15 -10 0
-15 10 -15 30 0 20 5 30 15 30 8 0 15 9 15 20 0 17 -7 20 -50 20 -36 0 -50 -4
-50 -14 0 -13 -28 -26 -57 -26 -7 0 -13 9 -13 20 0 19 -7 20 -100 20 -82 0
-100 -3 -100 -15 0 -8 -9 -15 -20 -15 -11 0 -20 -6 -20 -14 0 -13 -28 -26 -57
-26 -7 0 -13 9 -13 20 0 16 -7 20 -35 20 -28 0 -35 -4 -35 -20 0 -16 -7 -20
-30 -20 -23 0 -30 4 -30 20 0 11 7 20 15 20 8 0 15 7 15 15 0 8 9 15 20 15 11
0 20 6 20 14 0 8 14 17 30 21 17 4 30 13 30 21 0 8 6 14 14 14 7 0 16 9 19 20
3 11 12 20 21 20 11 0 16 9 16 30 0 23 -4 30 -20 30 -11 0 -20 -6 -20 -14 0
-8 -13 -17 -30 -21 -16 -4 -30 -13 -30 -21 0 -8 -7 -14 -15 -14 -8 0 -15 -7
-15 -15 0 -8 -9 -15 -20 -15 -11 0 -20 -7 -20 -15 0 -9 -7 -18 -15 -21 -8 -4
-15 -12 -15 -20 0 -8 -9 -14 -20 -14 -11 0 -20 -7 -20 -15 0 -10 -11 -15 -35
-15 -32 0 -35 2 -35 30 0 21 5 30 16 30 9 0 18 9 21 20 3 11 12 20 19 20 8 0
14 9 14 20 0 11 7 20 15 20 10 0 15 10 15 30 0 20 -5 30 -15 30 -8 0 -15 -7
-15 -15 0 -8 -6 -15 -14 -15 -7 0 -16 -9 -19 -20 -3 -11 -12 -20 -21 -20 -11
0 -16 -9 -16 -30 0 -19 -5 -30 -14 -30 -7 0 -16 -9 -19 -20 -3 -11 -12 -20
-21 -20 -9 0 -16 -8 -16 -20 0 -11 -7 -20 -15 -20 -10 0 -15 -10 -15 -30 0
-23 -4 -30 -20 -30 -16 0 -20 7 -20 30 0 20 -5 30 -15 30 -8 0 -15 -7 -15 -15
0 -8 -9 -15 -20 -15 -11 0 -20 -7 -20 -15 0 -8 -7 -15 -15 -15 -9 0 -15 9 -15
21 0 19 -4 21 -30 15 -22 -4 -32 -1 -36 9 -8 20 -60 19 -68 0 -3 -9 -18 -15
-36 -15 -20 0 -30 5 -30 15 0 10 -10 15 -34 15 -21 0 -36 -6 -40 -15 -3 -8
-12 -15 -21 -15 -8 0 -15 -7 -15 -15 0 -8 -7 -15 -15 -15 -10 0 -15 11 -15 35
0 24 5 35 15 35 8 0 15 6 15 14 0 7 9 16 20 19 11 3 20 12 20 21 0 11 9 16 30
16 20 0 30 5 30 15 0 8 6 15 14 15 15 0 26 30 26 73 0 17 -5 27 -15 27 -8 0
-15 -7 -15 -15 0 -8 -9 -15 -20 -15 -13 0 -20 -7 -20 -20 0 -11 -7 -20 -15
-20 -8 0 -15 -7 -15 -15 0 -10 -11 -15 -35 -15 -31 0 -35 -3 -35 -27 0 -43
-11 -73 -26 -73 -8 0 -14 -7 -14 -15 0 -8 -7 -15 -15 -15 -8 0 -15 -9 -15 -20
0 -11 7 -20 15 -20 8 0 15 -7 15 -15 0 -8 6 -15 13 -15 6 0 22 -3 35 -6 18 -5
22 -2 22 15 0 17 6 21 35 21 28 0 35 -4 35 -20 0 -18 7 -20 70 -20 53 0 70 3
70 14 0 15 45 30 60 21 6 -4 10 -13 10 -21 0 -11 22 -14 120 -14 113 0 120 1
120 20 0 11 7 20 15 20 8 0 15 7 15 15 0 10 11 15 35 15 24 0 35 -5 35 -15 0
-8 9 -15 20 -15 11 0 20 -7 20 -15 0 -12 15 -15 79 -15 61 0 80 3 85 15 3 8
12 15 21 15 8 0 15 7 15 15 0 8 9 15 20 15 11 0 20 -7 20 -15 0 -12 14 -15 70
-15 56 0 70 -3 70 -15 0 -8 7 -15 15 -15 8 0 15 5 15 10 0 6 16 10 35 10 19 0
35 -4 35 -10 0 -5 7 -10 15 -10 8 0 15 5 15 10 0 16 27 12 34 -5 9 -26 106
-16 106 11 0 9 12 14 35 14 24 0 35 -5 35 -15 0 -10 10 -15 30 -15 20 0 30 5
30 15 0 12 14 15 70 15 56 0 70 3 70 15 0 10 11 15 35 15 29 0 35 -4 35 -20 0
-18 4 -20 35 -14 27 5 35 3 35 -9 0 -16 29 -27 73 -27 20 0 27 5 27 20 0 13 7
20 20 20 26 0 26 26 -1 33 -18 5 -20 11 -14 36 6 30 5 31 -28 31 -26 0 -36 -5
-40 -20 -3 -11 -12 -20 -21 -20 -9 0 -16 -7 -16 -15 0 -8 -7 -15 -15 -15 -8 0
-15 7 -15 15 0 8 7 15 15 15 10 0 15 11 15 35 0 24 -5 35 -15 35 -8 0 -15 -7
-15 -15 0 -11 -12 -15 -49 -15 -40 0 -50 -3 -54 -20 -3 -11 -12 -20 -21 -20
-12 0 -16 10 -16 35 0 28 -4 35 -20 35 -11 0 -20 -7 -20 -15 0 -10 -11 -15
-35 -15 -33 0 -35 2 -35 35 0 28 4 35 20 35 16 0 20 7 20 30 0 21 5 30 16 30
9 0 18 9 21 20 3 11 12 20 19 20 8 0 14 9 14 20 0 16 -7 20 -35 20 -33 0 -35
-2 -35 -35z m310 -260 c0 -8 -7 -15 -15 -15 -8 0 -15 7 -15 15 0 8 7 15 15 15
8 0 15 -7 15 -15z"/>
<path d="M6170 5946 c0 -15 -30 -26 -72 -26 -17 0 -28 -5 -28 -14 0 -9 -23
-15 -82 -19 -82 -7 -98 -15 -98 -49 0 -15 9 -18 50 -18 38 0 50 4 50 15 0 8 9
15 20 15 16 0 20 -7 20 -35 0 -24 -5 -35 -14 -35 -8 0 -17 -13 -21 -29 -3 -16
-13 -32 -21 -35 -8 -3 -14 -12 -14 -21 0 -8 -6 -15 -14 -15 -8 0 -17 -15 -20
-35 -4 -19 -11 -35 -16 -35 -6 0 -10 -7 -10 -15 0 -8 7 -15 15 -15 8 0 15 6
15 14 0 7 10 16 21 19 32 8 79 -3 79 -19 0 -8 7 -14 15 -14 8 0 15 7 15 15 0
10 11 15 35 15 24 0 35 -5 35 -15 0 -11 11 -15 39 -15 22 0 46 -7 55 -15 8 -8
22 -15 30 -15 9 0 16 7 16 15 0 8 -7 15 -15 15 -8 0 -15 7 -15 15 0 8 6 15 14
15 7 0 16 9 19 20 6 23 37 27 37 5 0 -8 7 -15 15 -15 8 0 15 7 15 15 0 8 -6
15 -14 15 -9 0 -16 12 -18 33 -3 28 -7 32 -34 35 -25 2 -33 -1 -37 -17 -6 -24
-37 -29 -37 -6 0 8 -7 15 -15 15 -8 0 -15 9 -15 20 0 11 7 20 15 20 8 0 15 9
15 20 0 11 6 20 14 20 13 0 26 28 26 58 0 6 -9 12 -20 12 -13 0 -20 -7 -20
-20 0 -11 -7 -20 -15 -20 -8 0 -15 -7 -15 -15 0 -8 -7 -15 -16 -15 -9 0 -18
-9 -21 -20 -3 -11 -12 -20 -19 -20 -8 0 -14 -7 -14 -15 0 -8 -7 -15 -15 -15
-8 0 -15 -7 -15 -16 0 -9 -9 -18 -20 -21 -11 -3 -20 -12 -20 -19 0 -8 -7 -14
-15 -14 -8 0 -15 9 -15 20 0 11 7 20 15 20 10 0 15 10 15 30 0 19 5 30 14 30
15 0 26 30 26 73 0 17 5 27 15 27 8 0 15 9 15 20 0 17 7 20 49 20 45 0 49 2
54 27 3 16 3 31 0 35 -8 13 -33 9 -33 -6z"/>
<path d="M3110 5875 c0 -12 18 -15 100 -15 82 0 100 3 100 15 0 12 -18 15
-100 15 -82 0 -100 -3 -100 -15z"/>
<path d="M3420 5875 c0 -8 -7 -15 -16 -15 -9 0 -18 -9 -21 -20 -3 -11 -12 -20
-19 -20 -9 0 -14 -12 -14 -35 0 -28 -4 -35 -20 -35 -11 0 -20 -7 -20 -15 0 -8
-7 -15 -15 -15 -8 0 -15 -9 -15 -20 0 -11 -6 -20 -14 -20 -15 0 -30 -45 -21
-60 11 -18 35 -10 35 10 0 13 7 20 20 20 11 0 20 7 20 15 0 8 7 15 15 15 8 0
15 -9 15 -20 0 -11 -7 -20 -15 -20 -8 0 -15 -4 -15 -9 0 -16 43 -19 178 -12
24 1 31 31 7 31 -8 0 -15 7 -15 15 0 8 7 15 15 15 10 0 15 11 15 35 0 28 -4
35 -20 35 -11 0 -20 -6 -20 -14 0 -7 -10 -16 -22 -20 -34 -9 -38 -8 -38 13 0
10 -9 21 -20 24 -11 3 -20 10 -20 17 0 7 9 14 20 17 14 4 20 14 20 34 0 19 5
29 15 29 8 0 15 9 15 20 0 11 -7 20 -15 20 -8 0 -15 -7 -15 -15z"/>
<path d="M3180 5770 c0 -11 -6 -20 -14 -20 -8 0 -17 -15 -20 -35 -4 -21 -13
-35 -21 -35 -10 0 -15 -10 -15 -30 0 -19 5 -30 14 -30 8 0 17 14 21 30 4 17
13 30 21 30 8 0 14 9 14 20 0 11 7 20 15 20 10 0 15 11 15 35 0 24 -5 35 -15
35 -8 0 -15 -9 -15 -20z"/>
<path d="M3690 5630 c0 -13 7 -20 20 -20 13 0 20 7 20 20 0 13 -7 20 -20 20
-13 0 -20 -7 -20 -20z"/>
<path d="M6130 5510 c0 -28 3 -30 35 -30 32 0 35 2 35 30 0 28 -3 30 -35 30
-32 0 -35 -2 -35 -30z"/>
<path d="M4000 5425 c0 -8 -7 -15 -15 -15 -8 0 -15 -6 -15 -14 0 -7 -9 -16
-20 -19 -11 -3 -20 -12 -20 -21 0 -9 -7 -16 -15 -16 -8 0 -15 -7 -15 -15 0 -8
-14 -17 -35 -21 -20 -3 -35 -12 -35 -20 0 -8 -9 -14 -20 -14 -11 0 -20 -7 -20
-15 0 -10 -10 -15 -29 -15 -25 0 -31 5 -36 30 -7 31 -25 42 -25 15 0 -12 -18
-15 -105 -15 -87 0 -105 3 -105 15 0 8 -9 15 -20 15 -11 0 -20 -7 -20 -15 0
-8 -7 -15 -15 -15 -8 0 -15 6 -15 14 0 16 -44 26 -82 19 -16 -3 -28 -12 -28
-19 0 -9 -11 -14 -30 -14 -21 0 -30 5 -30 16 0 9 -9 18 -20 21 -11 3 -20 12
-20 19 0 9 -11 14 -30 14 -25 0 -30 -4 -36 -35 -3 -20 -12 -35 -20 -35 -8 0
-14 -6 -14 -14 0 -8 -15 -17 -35 -20 -31 -6 -35 -11 -35 -36 0 -23 5 -30 20
-30 11 0 20 7 20 15 0 8 7 15 15 15 8 0 15 6 15 14 0 13 28 26 58 26 7 0 12
-14 12 -35 l0 -35 85 0 c69 0 85 3 85 15 0 8 6 15 14 15 7 0 16 9 19 20 3 11
10 20 17 20 7 0 14 -9 17 -20 3 -11 12 -20 19 -20 8 0 14 -7 14 -15 0 -12 17
-15 90 -15 73 0 90 3 90 15 0 10 10 15 30 15 20 0 30 -5 30 -15 0 -12 19 -15
105 -17 58 -1 113 -2 122 -2 10 -1 19 7 21 17 2 12 -3 17 -17 17 -17 0 -21 6
-21 35 0 24 5 35 15 35 8 0 15 7 15 16 0 9 9 18 20 21 14 4 20 14 20 34 0 16
5 29 13 29 15 0 57 44 57 59 0 6 -9 11 -20 11 -11 0 -20 -7 -20 -15z"/>
<path d="M6280 5390 c0 -5 5 -10 10 -10 6 0 10 5 10 10 0 6 -4 10 -10 10 -5 0
-10 -4 -10 -10z"/>
<path d="M4280 5285 c0 -10 -11 -15 -35 -15 -24 0 -35 -5 -35 -15 0 -8 -7 -15
-16 -15 -9 0 -18 -9 -21 -20 -4 -14 -14 -20 -34 -20 -28 0 -29 -2 -29 -48 0
-35 -5 -52 -20 -65 -11 -9 -20 -26 -20 -37 0 -11 -7 -20 -15 -20 -8 0 -15 -9
-15 -20 0 -11 -6 -20 -14 -20 -12 0 -25 -28 -26 -52 0 -5 15 -8 34 -8 30 0 35
4 41 29 3 16 13 32 21 35 8 3 14 12 14 21 0 8 7 15 15 15 10 0 15 11 15 35 0
28 4 35 20 35 11 0 20 6 20 14 0 10 18 15 62 18 35 3 64 10 66 16 5 15 72 16
72 2 0 -16 27 -12 34 6 4 10 16 14 38 12 37 -4 50 -27 19 -35 -12 -3 -21 -12
-21 -19 0 -8 -7 -14 -15 -14 -8 0 -15 -9 -15 -20 0 -13 -7 -20 -20 -20 -21 0
-26 -30 -14 -77 9 -31 64 -33 64 -3 0 11 7 20 15 20 8 0 15 7 15 15 0 8 9 15
20 15 16 0 20 7 20 35 0 24 5 35 15 35 8 0 15 7 15 15 0 8 7 15 15 15 9 0 18
7 21 15 4 8 12 15 20 15 8 0 14 -7 14 -15 0 -11 12 -15 50 -15 36 0 52 4 56
15 4 8 12 15 20 15 8 0 14 9 14 20 0 13 -7 20 -20 20 -16 0 -20 7 -20 35 0 28
4 35 20 35 11 0 20 7 20 15 0 10 -11 15 -35 15 -24 0 -35 -5 -35 -15 0 -8 -6
-15 -14 -15 -7 0 -16 -9 -19 -20 -3 -11 -10 -20 -17 -20 -7 0 -14 9 -17 20 -3
11 -12 20 -19 20 -8 0 -14 7 -14 15 0 8 -9 15 -20 15 -11 0 -20 -7 -20 -15 0
-10 -10 -15 -30 -15 -20 0 -30 -5 -30 -15 0 -8 -9 -15 -20 -15 -16 0 -20 7
-20 30 0 20 -5 30 -15 30 -8 0 -15 -7 -15 -15 0 -10 -11 -15 -35 -15 -24 0
-35 5 -35 15 0 10 -11 15 -35 15 -24 0 -35 -5 -35 -15z m170 -70 c0 -8 -7 -15
-15 -15 -8 0 -15 7 -15 15 0 8 7 15 15 15 8 0 15 -7 15 -15z"/>
<path d="M5040 5285 c0 -8 -9 -15 -20 -15 -13 0 -20 -7 -20 -20 0 -11 -7 -20
-15 -20 -8 0 -15 -7 -15 -15 0 -8 -9 -15 -20 -15 -16 0 -20 -7 -20 -35 0 -39
24 -49 33 -14 5 17 11 20 31 15 34 -8 76 3 76 20 0 8 7 14 15 14 8 0 15 -7 15
-15 0 -12 14 -15 70 -15 l70 0 0 35 c0 24 5 35 15 35 10 0 15 10 15 30 l0 30
-65 0 c-51 0 -65 -3 -65 -15 0 -8 -9 -15 -20 -15 -11 0 -20 -7 -20 -15 0 -8
-7 -15 -15 -15 -8 0 -15 7 -15 15 0 8 7 15 15 15 8 0 15 7 15 15 0 10 -10 15
-30 15 -20 0 -30 -5 -30 -15z"/>
<path d="M3553 4980 c-3 -11 -12 -20 -19 -20 -8 0 -14 -7 -14 -15 0 -8 -6 -15
-12 -15 -16 0 -58 -44 -58 -59 0 -6 -7 -11 -15 -11 -8 0 -15 -9 -15 -20 0 -11
-7 -20 -15 -20 -8 0 -15 -7 -15 -15 0 -12 -14 -15 -70 -15 -56 0 -70 -3 -70
-15 0 -8 -9 -15 -20 -15 -18 0 -20 7 -20 65 0 58 2 65 20 65 13 0 20 7 20 20
0 11 7 20 15 20 8 0 15 7 15 15 0 10 -11 15 -35 15 -24 0 -35 -5 -35 -15 0 -8
-7 -15 -15 -15 -8 0 -15 -9 -15 -20 0 -11 -6 -20 -14 -20 -8 0 -17 -13 -21
-30 -4 -16 -13 -30 -21 -30 -8 0 -14 -9 -14 -20 0 -11 -6 -20 -14 -20 -7 0
-16 -9 -19 -20 -3 -11 -12 -20 -21 -20 -9 0 -16 -7 -16 -15 0 -8 -7 -15 -15
-15 -23 0 -18 -27 6 -33 32 -8 79 3 79 19 0 21 27 17 33 -6 5 -20 3 -20 160
-11 9 1 17 8 17 16 0 8 7 15 15 15 8 0 15 7 15 15 0 8 7 15 15 15 8 0 15 -7
15 -15 0 -8 9 -15 20 -15 11 0 20 -7 20 -15 0 -10 11 -15 35 -15 24 0 35 5 35
15 0 8 9 15 20 15 11 0 20 -7 20 -15 0 -12 18 -15 100 -15 82 0 100 3 100 15
0 8 7 15 15 15 8 0 15 7 15 15 0 10 -11 15 -35 15 -24 0 -35 -5 -35 -15 0 -8
-7 -15 -15 -15 -10 0 -15 11 -15 35 0 24 5 35 15 35 25 0 17 27 -10 34 -30 8
-45 1 -45 -20 0 -8 -7 -14 -15 -14 -8 0 -15 -7 -15 -15 0 -8 -7 -15 -15 -15
-10 0 -15 10 -15 30 0 23 -4 30 -20 30 -16 0 -20 7 -20 35 0 28 4 35 20 35 11
0 20 7 20 15 0 8 7 15 15 15 8 0 15 9 15 20 0 11 7 20 15 20 8 0 15 9 15 20 0
16 -7 20 -31 20 -22 0 -32 -5 -36 -20z m-73 -210 c0 -5 -4 -10 -10 -10 -5 0
-10 5 -10 10 0 6 5 10 10 10 6 0 10 -4 10 -10z"/>
<path d="M3350 4495 c0 -10 -11 -15 -35 -15 -24 0 -35 -5 -35 -14 0 -8 -14
-18 -32 -21 -18 -4 -36 -12 -40 -18 -3 -6 -33 -13 -66 -15 -49 -3 -61 -8 -65
-23 -3 -11 -12 -19 -21 -19 -28 0 -17 -17 14 -23 29 -6 60 0 70 14 3 3 20 10
38 14 28 6 32 4 32 -14 0 -12 -6 -21 -15 -21 -10 0 -15 -10 -15 -31 0 -22 -5
-32 -20 -36 -14 -4 -20 -14 -20 -34 0 -19 -5 -29 -15 -29 -10 0 -15 -11 -15
-35 0 -24 -5 -35 -15 -35 -8 0 -15 -6 -15 -12 0 -7 -3 -23 -6 -35 -5 -19 -2
-23 15 -23 12 0 21 6 21 15 0 8 7 15 15 15 8 0 15 -7 15 -15 0 -12 13 -15 55
-15 42 0 55 3 55 15 0 10 10 15 30 15 20 0 30 -5 30 -15 0 -8 9 -15 20 -15 11
0 20 7 20 15 0 11 13 15 53 15 l53 0 -1 58 c-1 31 -3 63 -4 70 -2 18 -31 15
-31 -4 0 -9 -9 -18 -20 -21 -11 -3 -20 -12 -20 -19 0 -8 -7 -14 -15 -14 -8 0
-15 7 -15 15 0 8 -6 15 -14 15 -8 0 -17 4 -21 10 -9 15 6 60 21 60 8 0 14 9
14 20 0 11 7 20 15 20 10 0 15 11 15 35 0 24 -5 35 -15 35 -8 0 -15 -7 -15
-15 0 -8 -7 -15 -15 -15 -8 0 -15 -8 -15 -19 0 -10 -9 -21 -20 -24 -15 -4 -20
-14 -20 -36 0 -21 -5 -31 -15 -31 -8 0 -15 -7 -15 -16 0 -9 -9 -18 -20 -21
-11 -3 -20 -12 -20 -19 0 -8 -7 -14 -15 -14 -8 0 -15 -7 -15 -15 0 -9 -9 -15
-21 -15 -17 0 -20 4 -15 23 3 12 6 25 6 30 0 4 7 7 15 7 8 0 15 9 15 20 0 11
7 20 15 20 10 0 15 11 15 35 0 28 4 35 20 35 17 0 20 7 20 50 0 49 1 50 30 50
17 0 33 6 36 14 3 8 19 18 35 21 24 5 29 12 29 36 0 19 -5 29 -15 29 -8 0 -15
-7 -15 -15z"/>
<path d="M3700 4223 c0 -7 -9 -13 -20 -13 -13 0 -20 -7 -20 -20 0 -16 -7 -20
-35 -20 -33 0 -35 -2 -35 -35 0 -33 2 -35 35 -35 24 0 35 -5 35 -15 0 -8 7
-15 15 -15 8 0 15 7 15 15 0 8 9 15 20 15 11 0 20 7 20 15 0 8 7 15 15 15 8 0
15 9 15 20 0 13 7 20 20 20 16 0 20 -7 20 -35 0 -24 5 -35 15 -35 8 0 15 7 15
15 0 8 9 15 20 15 11 0 20 -7 20 -15 0 -12 20 -15 120 -15 100 0 120 -2 120
-15 0 -8 7 -15 15 -15 8 0 15 7 15 15 0 11 12 15 49 15 40 0 50 3 54 20 3 11
12 20 21 20 9 0 16 7 16 15 0 10 -11 15 -35 15 -24 0 -35 -5 -35 -15 0 -23
-27 -18 -33 6 -3 12 -3 35 0 50 5 25 2 29 -16 29 -11 0 -21 -6 -21 -14 0 -7
-9 -16 -20 -19 -11 -3 -20 -12 -20 -21 0 -9 -7 -16 -15 -16 -10 0 -15 11 -15
35 0 33 -2 35 -35 35 -28 0 -35 -4 -35 -20 0 -11 -6 -20 -14 -20 -8 0 -17 -13
-21 -30 -10 -45 -24 -36 -27 18 l-3 47 -117 1 c-93 1 -118 -2 -118 -13z"/>
<path d="M4346 3515 c-4 -21 -13 -35 -21 -35 -10 0 -15 -11 -15 -35 0 -33 2
-35 35 -35 33 0 35 2 35 35 0 23 5 35 14 35 13 0 26 28 26 58 0 7 -13 12 -34
12 -31 0 -34 -3 -40 -35z"/>
<path d="M3280 3295 c0 -8 -6 -15 -12 -15 -16 0 -58 -44 -58 -59 0 -6 -6 -11
-14 -11 -7 0 -16 -9 -19 -20 -3 -11 -12 -20 -21 -20 -9 0 -16 -7 -16 -15 0 -8
-6 -15 -14 -15 -8 0 -17 -15 -20 -35 -4 -21 -13 -35 -21 -35 -8 0 -15 -9 -15
-20 0 -11 -7 -20 -15 -20 -11 0 -15 -12 -15 -50 0 -38 -4 -50 -15 -50 -10 0
-15 -10 -15 -30 0 -16 -7 -33 -16 -38 -10 -5 -18 -28 -21 -55 l-6 -47 37 0
c25 0 36 4 36 15 0 8 7 15 15 15 9 0 19 8 22 18 4 9 11 20 16 23 5 4 12 27 14
53 4 27 11 46 18 46 7 0 15 9 18 20 3 11 12 20 21 20 9 0 16 7 16 15 0 8 7 15
15 15 8 0 15 -7 15 -15 0 -11 12 -15 49 -15 47 0 50 2 56 30 4 17 13 30 21 30
9 0 14 -11 14 -30 0 -20 5 -30 15 -30 8 0 15 7 15 15 0 8 9 15 20 15 11 0 20
7 20 15 0 28 28 15 35 -15 7 -30 35 -43 35 -15 0 10 10 15 30 15 19 0 30 -5
30 -14 0 -15 106 -30 146 -20 33 9 30 31 -6 39 -25 5 -30 11 -30 36 0 19 5 29
15 29 8 0 15 7 15 15 0 9 6 18 14 21 8 3 18 19 21 35 4 16 12 29 20 29 7 0 15
9 18 20 3 11 12 20 21 20 9 0 16 7 16 15 0 8 7 15 15 15 10 0 15 11 15 35 0
28 -4 35 -20 35 -11 0 -20 -7 -20 -15 0 -8 -7 -15 -15 -15 -8 0 -15 -9 -15
-20 0 -11 -7 -20 -15 -20 -8 0 -15 -6 -15 -14 0 -7 -9 -16 -20 -19 -11 -3 -20
-12 -20 -21 0 -9 -7 -16 -15 -16 -8 0 -15 -7 -15 -15 0 -10 -11 -15 -35 -15
-24 0 -35 -5 -35 -15 0 -8 -7 -15 -16 -15 -9 0 -18 -9 -21 -20 -9 -34 -33 -24
-33 14 l0 33 -65 1 c-48 1 -65 -2 -65 -12 0 -14 -56 -30 -71 -20 -16 10 -69
-7 -69 -22 0 -9 -11 -14 -35 -14 -24 0 -35 5 -35 15 0 8 6 15 14 15 7 0 16 9
19 20 3 11 12 20 21 20 9 0 16 7 16 15 0 8 7 15 15 15 8 0 15 9 15 20 0 11 6
20 14 20 17 0 28 42 20 75 -7 27 -34 35 -34 10z"/>
</g>
</svg>
